<?xml version="1.0" encoding="UTF-8" standalone="no"?>
<!-- Created with Inkscape (http://www.inkscape.org/) -->

<svg
   version="1.1"
   id="svg2"
   xml:space="preserve"
   width="597.33331"
   height="128"
   viewBox="0 0 597.33331 128"
   sodipodi:docname="FutureOfWork_Message.svg"
   inkscape:export-filename="/home/kokoye2007/projects/git/tiled-maps/webinar-tech-talk/src/assets/FutureOfWork_Message.png"
   inkscape:export-xdpi="72"
   inkscape:export-ydpi="72"
   inkscape:version="1.1.2 (0a00cf5339, 2022-02-04)"
   xmlns:inkscape="http://www.inkscape.org/namespaces/inkscape"
   xmlns:sodipodi="http://sodipodi.sourceforge.net/DTD/sodipodi-0.dtd"
   xmlns="http://www.w3.org/2000/svg"
   xmlns:svg="http://www.w3.org/2000/svg"><defs
     id="defs6"><clipPath
       clipPathUnits="userSpaceOnUse"
       id="clipPath16"><path
         d="M 0,96 H 448 V 0 H 0 Z"
         id="path14" /></clipPath><clipPath
       clipPathUnits="userSpaceOnUse"
       id="clipPath36"><path
         d="M 0,96 H 448 V 0 H 0 Z"
         id="path34" /></clipPath></defs><sodipodi:namedview
     id="namedview4"
     pagecolor="#ffffff"
     bordercolor="#666666"
     borderopacity="1.0"
     inkscape:pageshadow="2"
     inkscape:pageopacity="0.0"
     inkscape:pagecheckerboard="0"
     showgrid="false"
     inkscape:zoom="2.2064733"
     inkscape:cx="298.66666"
     inkscape:cy="63.902881"
     inkscape:window-width="1872"
     inkscape:window-height="1016"
     inkscape:window-x="48"
     inkscape:window-y="27"
     inkscape:window-maximized="1"
     inkscape:current-layer="g8" /><g
     id="g8"
     inkscape:groupmode="layer"
     inkscape:label="FutureOfWork_Message"
     transform="matrix(1.3333333,0,0,-1.3333333,0,128)"><g
       id="g10"><g
         id="g12"
         clip-path="url(#clipPath16)"><text
           transform="matrix(1,0,0,-1,33.7324,78.417)"
           style="font-variant:normal;font-weight:600;font-stretch:normal;font-size:17.4276px;font-family:'Open Sans SemiBold';-inkscape-font-specification:OpenSans-SemiBold;writing-mode:lr-tb;fill:#21b1d5;fill-opacity:1;fill-rule:nonzero;stroke:none"
           id="text20"><tspan
             x="0 16.486509 26.524807 31.387108 40.013771 50.662033 67.322823 77.361115 81.892296 92.540558 103.60708 108.13826 118.99565 129.64392 139.75192 147.26321 158.12062 162.65179 168.97801 179.62627 187.13757 191.66875 198.51779 209.58432 219.62262 224.15379 231.00284 241.04114 249.6678 260.73431 265.2655 272.11453 282.22256 287.08487 297.05344 301.58463 315.82297 325.86127 336.71866 341.58096 352.64749 362.75549 370.26678"
             y="0"
             sodipodi:role="line"
             id="tspan18">Welcome on board for the tech talk webinar,</tspan></text></g></g><text
       transform="matrix(1,0,0,-1,161.1709,49.0381)"
       style="font-variant:normal;font-weight:bold;font-stretch:normal;font-size:21.7688px;font-family:Ubuntu;-inkscape-font-specification:'Ubuntu Bold';writing-mode:lr-tb;fill:#21b1d5;fill-opacity:1;fill-rule:nonzero;stroke:none;font-style:normal"
       id="text24"><tspan
         sodipodi:role="line"
         id="tspan22"
         x="0"
         y="0"
         style="font-style:normal;font-variant:normal;font-weight:bold;font-stretch:normal;font-family:Ubuntu;-inkscape-font-specification:'Ubuntu Bold'">VarCampers!</tspan></text><text
       transform="matrix(1,0,0,-1,52.0249,26.4258)"
       style="font-variant:normal;font-weight:600;font-stretch:normal;font-size:16.1296px;font-family:'Open Sans SemiBold';-inkscape-font-specification:OpenSans-SemiBold;writing-mode:lr-tb;fill:#21b1d5;fill-opacity:1;fill-rule:nonzero;stroke:none"
       id="text28"><tspan
         x="0 9.1293535 19.371649 28.6623 32.855995 42.904736 52.759922 62.615108 69.566963 77.422081 81.615776 91.470963 97.326004 101.5197 107.85863 118.10093 127.39158 131.58528 139.56943 149.42462 159.66692 165.52196 174.81261 181.76447 191.05511 201.29741 209.28156 218.5722 222.7659 232.12108 239.07294 248.36359 252.55728 262.79956 272.65475 285.83264 290.02634 298.0105 302.51065 312.36584 320.22095 329.5116 339.56033"
         y="0"
         sodipodi:role="line"
         id="tspan26">The doors of the conference are now closed.</tspan></text><g
       id="g30"><g
         id="g32"
         clip-path="url(#clipPath36)"><text
           transform="matrix(1,0,0,-1,43.4087,5.2051)"
           style="font-variant:normal;font-weight:600;font-stretch:normal;font-size:16.1296px;font-family:'Open Sans SemiBold';-inkscape-font-specification:OpenSans-SemiBold;writing-mode:lr-tb;fill:#21b1d5;fill-opacity:1;fill-rule:nonzero;stroke:none"
           id="text40"><tspan
             x="0 9.1293535 19.371649 28.6623 37.307766 41.501461 54.679344 59.179501 63.679661 68.179817 72.373512 82.228699 92.277443 101.56809 111.81039 116.00408 125.35925 131.69818 135.89188 142.23082 152.47311 161.76376 165.95746 176.0062 185.29684 194.26491 198.76506 209.00735 219.24965 223.74982 233.99211 242.96016 247.15385 257.00903 262.86411 267.0578 273.39673 283.63901 292.92966 297.12335 306.414 315.04333 324.33398 334.57629 340.91522"
             y="0"
             sodipodi:role="line"
             id="tspan38">They will open at the beginning of the event </tspan></text></g></g><text
       transform="matrix(1,0,0,-1,388.4624,5.2051)"
       style="font-variant:normal;font-weight:normal;font-size:16.1296px;font-family:Arial;-inkscape-font-specification:Arial;writing-mode:lr-tb;fill:#231f20;fill-opacity:1;fill-rule:nonzero;stroke:none"
       id="text44"><tspan
         x="0"
         y="0"
         id="tspan42" /></text></g></svg>
